<?xml version="1.0" encoding="UTF-8" standalone="no"?>
<!-- Created with Inkscape (http://www.inkscape.org/) -->

<svg
   xmlns:dc="http://purl.org/dc/elements/1.1/"
   xmlns:cc="http://creativecommons.org/ns#"
   xmlns:rdf="http://www.w3.org/1999/02/22-rdf-syntax-ns#"
   xmlns:svg="http://www.w3.org/2000/svg"
   xmlns="http://www.w3.org/2000/svg"
   xmlns:sodipodi="http://sodipodi.sourceforge.net/DTD/sodipodi-0.dtd"
   xmlns:inkscape="http://www.inkscape.org/namespaces/inkscape"
   width="744.09448819"
   height="1052.3622047"
   id="svg3008"
   version="1.1"
   inkscape:version="0.48.4 r9939"
   sodipodi:docname="drawing.svg"
   inkscape:export-filename="/home/nick/drawing.png"
   inkscape:export-xdpi="63.633133"
   inkscape:export-ydpi="63.633133">
  <defs
     id="defs3010" />
  <sodipodi:namedview
     id="base"
     pagecolor="#ffffff"
     bordercolor="#ffffff"
     borderopacity="0.0"
     inkscape:pageopacity="0.0"
     inkscape:pageshadow="0"
     inkscape:zoom="5.2732919"
     inkscape:cx="-940"
     inkscape:cy="1070.3416"
     inkscape:document-units="px"
     inkscape:current-layer="layer1"
     showgrid="true"
     inkscape:window-width="1916"
     inkscape:window-height="1037"
     inkscape:window-x="0"
     inkscape:window-y="41"
     inkscape:window-maximized="0">
    <inkscape:grid
       type="xygrid"
       id="grid3016" />
  </sodipodi:namedview>
  <metadata
     id="metadata3013">
    <rdf:RDF>
      <cc:Work
         rdf:about="">
        <dc:format>image/svg+xml</dc:format>
        <dc:type
           rdf:resource="http://purl.org/dc/dcmitype/StillImage" />
        <dc:title></dc:title>
      </cc:Work>
    </rdf:RDF>
  </metadata>
  <g
     inkscape:label="Layer 1"
     inkscape:groupmode="layer"
     id="layer1">
    <path
       style="fill:#000000"
       d="m -947.6341,-12.713428 0,-16.544128 2.0413,0 2.0413,0 2.4151,2.420481 2.4151,2.420481 0,9.670255 0,9.6702544 -4.4564,4.45339201 -4.4564,4.45339299 0,-16.5441284 z"
       id="path3161-4"
       inkscape:connector-curvature="0" />
    <path
       style="fill:#000000"
       d="m -942.514,5.4812344 0,-2.136357 2.2311,-2.225245 2.231,-2.225246 7.301,0 7.3009,0 2.3202,2.325766 2.3202,2.325765 0,2.035837 0,2.035836 -11.8522,0 -11.8522,0 0,-2.136356 z"
       id="path3163-31"
       inkscape:connector-curvature="0" />
    <path
       style="fill:#000000"
       d="m -918.1948,-0.67158359 -4.4075,-4.41049201 0,-9.6726314 0,-9.672632 2.4205,-2.415109 2.42037,-2.415108 2.036,0 2.0359,0 0,16.498233 c 0,9.0740274 -0.022,16.4982324 -0.049,16.4982324 -0.027,0 -2.0323,-1.984722 -4.45637,-4.41049299 l 0,0 z"
       id="path3165-1"
       inkscape:connector-curvature="0" />
    <path
       style="fill:#000000"
       d="m -940.0992,-30.626546 -2.2254,-2.231181 2.1365,-2.130421 2.1365,-2.130421 7.301,0 7.3011,0 2.1746,2.180801 2.1746,2.180801 -2.1746,2.180801 -2.1746,2.180801 -7.2122,0 -7.2122,0 -2.2253,-2.231181 z"
       id="path3167-0"
       inkscape:connector-curvature="0" />
    <path
       style="fill:#000000"
       d="m -920.2821,-38.771779 -2.3202,-2.325765 0,-9.670153 0,-9.670153 4.4564,-4.453393 4.45637,-4.453393 0,16.449312 0,16.449311 -2.1362,0 -2.1363,0 -2.32007,-2.325766 z"
       id="path3169-8"
       inkscape:connector-curvature="0" />
    <path
       style="fill:#000000"
       d="m -947.6341,-52.895324 0,-16.449312 4.4564,4.453393 4.4564,4.453393 0,9.675737 0,9.675737 -2.3257,2.320182 -2.3258,2.320181 -2.1307,0 -2.1306,0 0,-16.449311 z"
       id="path3171-4"
       inkscape:connector-curvature="0" />
    <path
       style="fill:#000000"
       d="m -940.1938,-66.734087 -2.3202,-2.325766 0,-2.035836 0,-2.035837 11.8522,0 11.8522,0 0,2.041421 0,2.04142 -2.3258,2.320182 -2.3258,2.320181 -7.2062,0 -7.2062,0 -2.3202,-2.325765 z"
       id="path3173-9"
       inkscape:connector-curvature="0" />
    <path
       style="fill:#000000"
       d="m -904.63413,-12.713379 0,-16.544128 2.0413,0 2.0413,0 2.4151,2.420481 2.4151,2.420481 0,9.670255 0,9.6702544 -4.4564,4.45339201 -4.4564,4.45339299 0,-16.5441284 z"
       id="path3161-2-4"
       inkscape:connector-curvature="0" />
    <path
       style="fill:#000000"
       d="m -899.51403,5.4812834 0,-2.136357 2.2311,-2.225245 2.231,-2.225246 7.301,0 7.3009,0 2.3202,2.325766 2.3202,2.325765 0,2.035837 0,2.035836 -11.8522,0 -11.8522,0 0,-2.136356 z"
       id="path3163-3-8"
       inkscape:connector-curvature="0" />
    <path
       style="fill:#000000"
       d="m -875.19483,-0.67153459 -4.4075,-4.41049201 0,-9.6726314 0,-9.672632 2.4205,-2.415109 2.4204,-2.415108 2.036,0 2.0359,0 0,16.498233 c 0,9.0740274 -0.022,16.4982324 -0.049,16.4982324 -0.027,0 -2.0323,-1.984722 -4.4564,-4.41049299 l 0,0 z"
       id="path3165-2-8"
       inkscape:connector-curvature="0" />
    <path
       style="fill:#000000"
       d="m -897.09923,-30.626497 -2.2254,-2.231181 2.1365,-2.130421 2.1365,-2.130421 7.301,0 7.3011,0 2.1746,2.180801 2.1746,2.180801 -2.1746,2.180801 -2.1746,2.180801 -7.2122,0 -7.2122,0 -2.2253,-2.231181 z"
       id="path3167-4-0"
       inkscape:connector-curvature="0" />
    <path
       style="fill:#000000"
       d="m -877.28213,-38.77173 -2.3202,-2.325765 0,-9.670153 0,-9.670153 4.4564,-4.453393 4.4564,-4.453393 0,16.449312 0,16.449311 -2.1362,0 -2.1363,0 -2.3201,-2.325766 z"
       id="path3169-7-0"
       inkscape:connector-curvature="0" />
    <path
       style="fill:#000000"
       d="m -904.63413,-52.895275 0,-16.449312 4.4564,4.453393 4.4564,4.453393 0,9.675737 0,9.675737 -2.3257,2.320182 -2.3258,2.320181 -2.1307,0 -2.1306,0 0,-16.449311 z"
       id="path3171-8-1"
       inkscape:connector-curvature="0" />
    <path
       style="fill:#000000"
       d="m -897.19383,-66.734038 -2.3202,-2.325766 0,-2.035836 0,-2.035837 11.8522,0 11.8522,0 0,2.041421 0,2.04142 -2.3258,2.320182 -2.3258,2.320181 -7.2062,0 -7.2062,0 -2.3202,-2.325765 z"
       id="path3173-0-5"
       inkscape:connector-curvature="0" />
    <path
       sodipodi:type="arc"
       style="fill:#000000"
       id="path3330"
       sodipodi:cx="-835"
       sodipodi:cy="-47.637817"
       sodipodi:rx="5"
       sodipodi:ry="5"
       d="m -830,-47.637817 a 5,5 0 1 1 -10,0 5,5 0 1 1 10,0 z"
       transform="matrix(0.73451119,0,0,0.73451119,-343.61837,-8.750958)" />
    <path
       sodipodi:type="arc"
       style="fill:#000000"
       id="path3330-9"
       sodipodi:cx="-835"
       sodipodi:cy="-47.637817"
       sodipodi:rx="5"
       sodipodi:ry="5"
       d="m -830,-47.637817 a 5,5 0 1 1 -10,0 5,5 0 1 1 10,0 z"
       transform="matrix(0.73451119,0,0,0.73451119,-343.73851,15.837977)" />
    <path
       style="fill:#000000"
       d="m -1042.6341,-12.661593 0,-16.544128 2.0413,0 2.0413,0 2.4151,2.420481 2.4151,2.420481 0,9.670255 0,9.6702533 -4.4564,4.45339198 -4.4564,4.45339302 0,-16.5441273 z"
       id="path3161-4-7"
       inkscape:connector-curvature="0" />
    <path
       style="fill:#000000"
       d="m -1037.514,5.5330687 0,-2.1363574 2.2311,-2.225245 2.231,-2.225246 7.301,0 7.3009,0 2.3202,2.325766 2.3202,2.325765 0,2.0358374 0,2.035836 -11.8522,0 -11.8522,0 0,-2.136356 z"
       id="path3163-31-3"
       inkscape:connector-curvature="0" />
    <path
       style="fill:#000000"
       d="m -1013.1948,-0.61974972 -4.4075,-4.41049198 0,-9.6726303 0,-9.672632 2.4205,-2.415109 2.4204,-2.415108 2.036,0 2.0359,0 0,16.498233 c 0,9.0740263 -0.022,16.4982313 -0.049,16.4982313 -0.027,0 -2.0323,-1.984722 -4.4564,-4.41049302 l 0,0 z"
       id="path3165-1-2"
       inkscape:connector-curvature="0" />
    <path
       style="fill:#000000"
       d="m -1035.0992,-30.574711 -2.2254,-2.231181 2.1365,-2.130421 2.1365,-2.130421 7.301,0 7.3011,0 2.1746,2.180801 2.1746,2.180801 -2.1746,2.180801 -2.1746,2.180801 -7.2122,0 -7.2122,0 -2.2253,-2.231181 z"
       id="path3167-0-8"
       inkscape:connector-curvature="0" />
    <path
       style="fill:#000000"
       d="m -1015.2821,-38.719944 -2.3202,-2.325765 0,-9.670153 0,-9.670153 4.4564,-4.453393 4.4564,-4.453393 0,16.449312 0,16.449311 -2.1362,0 -2.1363,0 -2.3201,-2.325766 z"
       id="path3169-8-1"
       inkscape:connector-curvature="0" />
    <path
       style="fill:#000000"
       d="m -1042.6341,-52.843489 0,-16.449312 4.4564,4.453393 4.4564,4.453393 0,9.675737 0,9.675737 -2.3257,2.320182 -2.3258,2.320181 -2.1307,0 -2.1306,0 0,-16.449311 z"
       id="path3171-4-8"
       inkscape:connector-curvature="0" />
    <path
       style="fill:#000000"
       d="m -1035.1938,-66.682252 -2.3202,-2.325766 0,-2.035836 0,-2.035837 11.8522,0 11.8522,0 0,2.041421 0,2.04142 -2.3258,2.320182 -2.3258,2.320181 -7.2062,0 -7.2062,0 -2.3202,-2.325765 z"
       id="path3173-9-3"
       inkscape:connector-curvature="0" />
    <path
       style="fill:#000000"
       d="m -999.63413,-12.661544 0,-16.544128 2.0413,0 2.0413,0 2.4151,2.420481 2.4151,2.420481 0,9.670255 0,9.6702533 -4.4564,4.45339198 -4.4564,4.45339302 0,-16.5441273 z"
       id="path3161-2-4-6"
       inkscape:connector-curvature="0" />
    <path
       style="fill:#000000"
       d="m -994.51403,5.5331177 0,-2.1363574 2.2311,-2.225245 2.231,-2.225246 7.301,0 7.3009,0 2.3202,2.325766 2.3202,2.325765 0,2.0358374 0,2.035836 -11.8522,0 -11.8522,0 0,-2.136356 z"
       id="path3163-3-8-4"
       inkscape:connector-curvature="0" />
    <path
       style="fill:#000000"
       d="m -970.19483,-0.61970072 -4.4075,-4.41049198 0,-9.6726303 0,-9.672632 2.4205,-2.415109 2.4204,-2.415108 2.036,0 2.0359,0 0,16.498233 c 0,9.0740263 -0.022,16.4982313 -0.049,16.4982313 -0.027,0 -2.0323,-1.984722 -4.4564,-4.41049302 l 0,0 z"
       id="path3165-2-8-5"
       inkscape:connector-curvature="0" />
    <path
       style="fill:#000000"
       d="m -992.09923,-30.574662 -2.2254,-2.231181 2.1365,-2.130421 2.1365,-2.130421 7.301,0 7.3011,0 2.1746,2.180801 2.1746,2.180801 -2.1746,2.180801 -2.1746,2.180801 -7.2122,0 -7.2122,0 -2.2253,-2.231181 z"
       id="path3167-4-0-0"
       inkscape:connector-curvature="0" />
    <path
       style="fill:#000000"
       d="m -972.28213,-38.719895 -2.3202,-2.325765 0,-9.670153 0,-9.670153 4.4564,-4.453393 4.4564,-4.453393 0,16.449312 0,16.449311 -2.1362,0 -2.1363,0 -2.3201,-2.325766 z"
       id="path3169-7-0-1"
       inkscape:connector-curvature="0" />
    <path
       style="fill:#000000"
       d="m -999.63413,-52.84344 0,-16.449312 4.4564,4.453393 4.4564,4.453393 0,9.675737 0,9.675737 -2.3257,2.320182 -2.3258,2.320181 -2.1307,0 -2.1306,0 0,-16.449311 z"
       id="path3171-8-1-5"
       inkscape:connector-curvature="0" />
    <path
       style="fill:#000000"
       d="m -992.19383,-66.682203 -2.3202,-2.325766 0,-2.035836 0,-2.035837 11.8522,0 11.8522,0 0,2.041421 0,2.04142 -2.3258,2.320182 -2.3258,2.320181 -7.2062,0 -7.2062,0 -2.3202,-2.325765 z"
       id="path3173-0-5-3"
       inkscape:connector-curvature="0" />
  </g>
</svg>
